# xmcd
#
# Track frame offsets: 
#        150
#        129504
#        146356
#        264451
#
# Disc length: 4674 seconds
#
# Revision: 0
# Processed by: cddbd v1.5.2PL0 Copyright (c) Steve Scherf et al.
# Submitted via: ExactAudioCopy v0.99pb3
#
DISCID=32124004
DTITLE=Velvet Underground - Caught Between the Twisted Stars- Disc Two
DYEAR=1998
DGENRE=Acid
TTITLE0=Nothing Song
TTITLE1=Venus Heroin
TTITLE2=Chic Mystique
TTITLE3=Train 'Round the Bend- Oh! Sweet Nuthin'
EXTD=
EXTT0=
EXTT1=
EXTT2=
EXTT3=
PLAYORDER=
